<svg xmlns="http://www.w3.org/2000/svg" xmlns:xlink="http://www.w3.org/1999/xlink" version="1.1" x="0px" y="0px" viewBox="0 0 100 125" enable-background="new 0 0 100 100" xml:space="preserve">
	<g>
		<g>
			<g>
				<path fill="#888888" d="M85.422,13.772h-2.093V9.376C83.329,6.969,81.36,5,78.953,5h-0.442c-2.407,0-4.376,1.969-4.376,4.376v4.395h-9.96V9.376     C64.174,6.969,62.205,5,59.798,5h-0.442c-2.407,0-4.376,1.969-4.376,4.376v4.395h-9.96V9.376C45.02,6.969,43.05,5,40.643,5     h-0.442c-2.407,0-4.376,1.969-4.376,4.376v4.395h-9.96V9.376C25.865,6.969,23.896,5,21.489,5h-0.442     c-2.407,0-4.376,1.969-4.376,4.376v4.395h-2.093c-4.873,0-8.838,3.964-8.838,8.837v63.554C5.74,91.036,9.705,95,14.578,95h70.845     c4.873,0,8.838-3.964,8.838-8.837V22.609C94.26,17.736,90.295,13.772,85.422,13.772z M88.021,86.163     c0,1.433-1.166,2.599-2.599,2.599H14.578c-1.433,0-2.599-1.166-2.599-2.599V32.43h76.042V86.163z"/>
				<rect fill="#888888" x="20.316" y="40.239" width="15.623" height="8.91"/>
				<rect fill="#888888" x="42.189" y="40.239" width="15.623" height="8.91"/>
				<rect fill="#888888" x="64.061" y="40.239" width="15.623" height="8.91"/>
				<rect fill="#888888" x="20.316" y="55.398" width="15.623" height="8.911"/>
				<rect fill="#888888" x="42.189" y="55.398" width="15.623" height="8.911"/>
				<rect fill="#888888" x="64.061" y="55.398" width="15.623" height="8.911"/>
				<rect fill="#888888" x="20.316" y="70.559" width="15.623" height="8.911"/>
				<rect fill="#888888" x="42.189" y="70.559" width="15.623" height="8.911"/>
				<rect fill="#888888" x="64.061" y="70.559" width="15.623" height="8.911"/>
			</g>
		</g>
	</g>
</svg>